<?xml version="1.0" encoding="UTF-8" standalone="no"?>
<!-- Created with Inkscape (http://www.inkscape.org/) -->

<svg
   width="50"
   height="50"
   viewBox="0 0 50 50"
   version="1.1"
   id="svg1"
   xmlns="http://www.w3.org/2000/svg"
   xmlns:svg="http://www.w3.org/2000/svg">
  <defs
     id="defs1" />
  <g
     id="layer1"
     transform="matrix(1.0000108,0,0,1.0155719,-4.2586861e-4,-2.854438)">
    <path
       style="fill:none;stroke:#f9f9f9;stroke-width:1.5;stroke-linecap:round;stroke-linejoin:round"
       d="m 23,42.033575 c 0,0 -11.986857,-0.920315 -15.055367,-4.41009 -1.5531646,-1.766393 0.00534,-2.975473 2.082142,-6.746249 C 11.869391,27.531659 13.28348,14.971288 15.87055,12.16145 17.609137,10.273155 23,8.4159453 23,8.4159453 m 0.18644,33.6176297 c 0,0 11.986857,-0.920315 15.055367,-4.41009 1.553165,-1.766393 -0.0053,-2.975473 -2.082142,-6.746249 C 34.317049,27.531659 32.90296,14.971288 30.31589,12.16145 28.577303,10.273155 23.18644,8.4159453 23.18644,8.4159453"
       id="path1"
       transform="matrix(1.0587802,0,0,0.99850399,0.54935536,0.0388263)" />
    <path
       style="fill:none;stroke:#f9f9f9;stroke-width:1.4062;stroke-linecap:round;stroke-linejoin:round"
       id="path2"
       d="m 28.824873,42.238472 a 3.8650906,3.3149915 0 0 1 -1.516466,3.573465 3.8650906,3.3149915 0 0 1 -4.43385,0 3.8650906,3.3149915 0 0 1 -1.516466,-3.573465" />
  </g>
</svg>
