<?xml version="1.0" encoding="UTF-8" standalone="no"?>
<!-- Created with Inkscape (http://www.inkscape.org/) -->

<svg
   width="50"
   height="50"
   viewBox="0 0 50 50"
   version="1.1"
   id="svg1"
   xmlns="http://www.w3.org/2000/svg"
   xmlns:svg="http://www.w3.org/2000/svg">
  <defs
     id="defs1" />
  <g
     id="layer1">
    <path
       style="fill:none;stroke:#999999;stroke-width:1.46237;stroke-linecap:round;stroke-linejoin:round"
       d="m 24.97135,41.768647 c 0,0 13.159995,-8.455261 17.581279,-16.84389 1.293358,-2.453924 1.468541,-7.190134 0.324257,-9.718782 -0.739247,-1.633596 -1.808558,-3.17617 -3.081824,-4.393487 -2.320496,-2.2185332 -8.040718,-2.0541464 -10.233293,0.248185 -2.583462,2.712785 -4.590419,6.401284 -4.590419,6.401284 0,0 -3.089786,-4.43698 -6.619634,-7.17363 C 15.83418,8.3365105 10.103727,8.9636434 8.1842945,11.523709 7.3806277,12.59561 6.7297427,13.840679 6.2709231,15.132633 5.3412672,17.75038 5.8065705,22.444497 7.157857,24.871748 11.853729,33.306715 24.97135,41.768647 24.97135,41.768647 Z"
       id="path1"
       transform="matrix(1.004407,0,0,0.85299531,-0.07876326,1.1488854)" />
  </g>
</svg>
