<?xml version="1.0" encoding="UTF-8" standalone="no"?>
<!-- Created with Inkscape (http://www.inkscape.org/) -->

<svg
   width="100"
   height="50"
   viewBox="0 0 100 50"
   version="1.1"
   id="svg1"
   xmlns="http://www.w3.org/2000/svg"
   xmlns:svg="http://www.w3.org/2000/svg">
  <defs
     id="defs1">
    <rect
       x="5.9322034"
       y="5.0847458"
       width="86.864407"
       height="32.20339"
       id="rect1" />
  </defs>
  <g
     id="layer1">
    <path
       d="M 7.4458761,35.226302 H 4.9999989 V 14.773698 H 7.6356431 C 8.5940091,15.565589 12.29785,27.892955 12.29785,27.892955 V 14.773698 h 2.456421 v 19.023101 h -2.61456 C 11.159148,33.011654 7.4458761,20.624829 7.4458761,20.624829 Z M 18.644466,33.082048 v -18.30835 h 10.430419 v 2.256112 h -7.773689 v 6.441516 h 6.645633 v 2.04526 h -6.645633 v 5.309349 l 8.490585,-0.714751 v 2.256112 z M 36.99289,32.367297 V 16.829501 h -4.708924 v -2.055803 h 11.958377 v 2.055803 H 39.639077 V 32.367297 Z M 48.842738,31.890795 V 14.773698 H 58.967903 V 17.02981 H 51.499468 V 21.928 h 4.910876 v 2.055803 h -4.910876 v 7.906992 z m 13.498748,0.714752 V 14.773698 h 2.65673 v 15.575737 h 6.443839 v 2.256112 z m 15.548327,0.476501 h -2.656729 v -18.30835 h 2.656729 z m 6.402511,0.714751 h -2.688357 l 5.421981,-8.954938 -4.905394,-10.068163 h 2.909752 l 3.50323,7.717168 3.788649,-7.717168 h 2.646188 l -5.148641,9.857311 5.180269,10.595292 H 92.13242 l -3.799191,-8.233754 z"
       id="text3"
       style="font-size:24px;font-family:Thonburi;-inkscape-font-specification:Thonburi;fill:#d40000;stroke-width:1"
       aria-label="NETFLIX" />
  </g>
</svg>
